<svg  viewBox="0 0 50 50" fill="none" xmlns="http://www.w3.org/2000/svg">
<g clip-path="url(#clip0)">
<path d="M49.9081 11.8565C49.736 11.2165 49.3161 10.671 48.7417 10.3402C48.1668 10.0078 47.4834 9.91791 46.8422 10.09C46.2018 10.2625 45.6563 10.6819 45.3255 11.2564L44.9089 11.9814C44.5131 11.7539 44.0074 11.8878 43.7759 12.2816L41.6596 15.889L40.9346 15.4724C40.7426 15.3613 40.5139 15.3312 40.2999 15.389C40.0855 15.4472 39.9033 15.5879 39.793 15.7808C39.5672 16.179 39.7047 16.6851 40.1014 16.9138L40.8264 17.3304L33.7442 29.6033L31.9945 34.2778L31.1613 35.8355C30.6735 36.6842 30.7255 37.7391 31.2947 38.5353L29.42 40.8347L28.8952 39.5186C28.6584 38.9319 28.1104 38.53 27.4803 38.4808C26.8497 38.4311 26.2455 38.7428 25.9205 39.2851L25.6206 39.7932L25.3375 36.4604C25.2724 35.672 24.6617 35.0381 23.8765 34.9429C23.0909 34.8482 22.3473 35.3189 22.0962 36.0691L20.0466 42.2179C19.9034 42.6528 20.1378 43.1215 20.5714 43.2679C20.6528 43.3058 20.7403 43.3286 20.8298 43.3343C21.1878 43.3355 21.5067 43.1073 21.6215 42.768L23.6625 36.6191L23.9542 40.0015C24.0145 40.7232 24.5332 41.3233 25.2386 41.4868C25.9441 41.6504 26.6739 41.3396 27.0453 40.7183L27.3537 40.2098L27.8704 41.5182C28.0897 42.0694 28.5856 42.4628 29.1727 42.5503C29.7597 42.6378 30.3488 42.4063 30.7199 41.9429L32.6613 39.4852C32.8761 39.5414 33.0974 39.5694 33.3195 39.5686C34.2125 39.5755 35.0416 39.1052 35.494 38.3351L36.3272 36.9437L39.5017 33.0862L46.6587 20.6632L47.3837 21.0797C47.5769 21.1904 47.7177 21.3731 47.7751 21.5883C47.8328 21.8019 47.8027 22.0297 47.6921 22.2213L44.3593 27.9955C44.2336 28.1851 44.1909 28.4178 44.2413 28.6399C44.2918 28.8616 44.4305 29.0532 44.6258 29.17C44.8178 29.2815 45.0464 29.3116 45.2604 29.2538C45.4748 29.1956 45.6571 29.0549 45.7673 28.862L49.1001 23.0879C49.4325 22.513 49.5224 21.8295 49.3499 21.1884C49.1774 20.548 48.758 20.0025 48.1835 19.6717L47.4585 19.2551L49.5415 15.6473C49.7689 15.2515 49.6351 14.7462 49.2417 14.5143L49.6583 13.7893C49.9996 13.2055 50.0899 12.5082 49.9081 11.8565ZM46.7669 12.0896C46.8772 11.8967 47.0602 11.7556 47.2755 11.6982C47.4895 11.6453 47.7157 11.675 47.9085 11.7816C48.1017 11.8919 48.2425 12.0749 48.3003 12.2897C48.3532 12.5037 48.3235 12.7299 48.2169 12.9228L47.8003 13.6477L46.3503 12.8145L46.7669 12.0896ZM35.4106 35.3526L34.994 35.111L33.7609 34.3941L34.944 31.2282L37.5685 32.7444L35.4106 35.3526ZM32.911 37.7603C32.5591 37.5149 32.4509 37.043 32.6613 36.6687L33.0778 35.9442L34.5274 36.7774L34.1108 37.4938C33.994 37.6964 33.7979 37.8404 33.5697 37.8913C33.3415 37.9417 33.1027 37.8945 32.911 37.7603ZM38.5184 31.3783L35.6356 29.7119L42.3011 18.1636L45.1839 19.83L38.5184 31.3783ZM46.0171 18.3886L43.1343 16.7222L44.8007 13.8394L47.6835 15.5057L46.0171 18.3886Z" fill="#c3a069"/>
<path d="M13.1476 37.3437L10.1985 40.2851L8.432 38.5186C8.10694 38.1956 7.58213 38.1956 7.25707 38.5186C7.09922 38.6753 7.01053 38.888 7.01053 39.1102C7.01053 39.3323 7.09922 39.5455 7.25707 39.7017L9.02353 41.4682C9.33598 41.7782 9.75827 41.9519 10.1985 41.9515C10.6411 41.9539 11.067 41.7802 11.3815 41.4682L14.3225 38.5186C14.6057 38.1879 14.5865 37.6952 14.279 37.3876C13.971 37.0797 13.4783 37.0606 13.1476 37.3437Z" fill="#c3a069"/>
<path d="M3.33276 39.5849C3.33276 43.4966 6.50361 46.667 10.4149 46.667C14.3262 46.667 17.497 43.4966 17.497 39.5849C17.497 39.1248 17.124 38.7517 16.6638 38.7517C16.2037 38.7517 15.8306 39.1248 15.8306 39.5849C15.8306 42.5759 13.4059 45.0006 10.4149 45.0006C7.42386 45.0006 4.99915 42.5759 4.99915 39.5849C4.99915 36.5939 7.42386 34.1691 10.4149 34.1691C11.5874 34.1659 12.7285 34.5463 13.6643 35.2525C14.0324 35.5288 14.5548 35.4539 14.8306 35.0857C15.1069 34.7176 15.0324 34.1956 14.6642 33.9194C12.5182 32.3099 9.64679 32.0512 7.24771 33.2505C4.84821 34.4503 3.33276 36.9027 3.33276 39.5849Z" fill="#c3a069"/>
<path d="M29.9949 6.67383C30.455 6.67383 30.8281 6.30117 30.8281 5.84064C30.8281 5.38051 30.455 5.00745 29.9949 5.00745H8.33191C7.87178 5.00745 7.49872 5.38051 7.49872 5.84064V9.1734C7.49872 9.63394 7.87178 10.0066 8.33191 10.0066H29.9949C30.455 10.0066 30.8281 9.63394 30.8281 9.1734C30.8281 8.71328 30.455 8.34021 29.9949 8.34021H9.1651V6.67383H29.9949Z" fill="#c3a069"/>
<path d="M10.8315 11.673C10.3714 11.673 9.99829 12.0461 9.99829 12.5062C9.99829 12.9668 10.3714 13.3394 10.8315 13.3394H27.4953C27.9554 13.3394 28.3285 12.9668 28.3285 12.5062C28.3285 12.0461 27.9554 11.673 27.4953 11.673H10.8315Z" fill="#c3a069"/>
<path d="M32.4944 17.5054H14.1642C13.7041 17.5054 13.3311 17.8784 13.3311 18.3386C13.3311 18.7991 13.7041 19.1718 14.1642 19.1718H32.4944C32.9546 19.1718 33.3276 18.7991 33.3276 18.3386C33.3276 17.8784 32.9546 17.5054 32.4944 17.5054Z" fill="#c3a069"/>
<path d="M24.1625 23.3377C24.1625 22.8776 23.7895 22.5045 23.3294 22.5045H6.66553C6.2054 22.5045 5.83234 22.8776 5.83234 23.3377C5.83234 23.7982 6.2054 24.1709 6.66553 24.1709H23.3294C23.7895 24.1709 24.1625 23.7982 24.1625 23.3377Z" fill="#c3a069"/>
<path d="M32.4944 22.5045H26.6621C26.202 22.5045 25.8289 22.8776 25.8289 23.3377C25.8289 23.7982 26.202 24.1709 26.6621 24.1709H32.4944C32.9546 24.1709 33.3276 23.7982 33.3276 23.3377C33.3276 22.8776 32.9546 22.5045 32.4944 22.5045Z" fill="#c3a069"/>
<path d="M14.9974 28.3368C15.4576 28.3368 15.8306 27.9642 15.8306 27.5037C15.8306 27.0435 15.4576 26.6705 14.9974 26.6705H6.66553C6.2054 26.6705 5.83234 27.0435 5.83234 27.5037C5.83234 27.9642 6.2054 28.3368 6.66553 28.3368H14.9974Z" fill="#c3a069"/>
<path d="M18.3302 28.3368H24.1626C24.6227 28.3368 24.9958 27.9642 24.9958 27.5037C24.9958 27.0435 24.6227 26.6705 24.1626 26.6705H18.3302C17.8701 26.6705 17.497 27.0435 17.497 27.5037C17.497 27.9642 17.8701 28.3368 18.3302 28.3368Z" fill="#c3a069"/>
<path d="M37.4936 38.3351C37.0335 38.3351 36.6604 38.7082 36.6604 39.1683V47.5002C36.6604 47.9607 36.2874 48.3334 35.8272 48.3334H2.49957C2.03945 48.3334 1.66638 47.9607 1.66638 47.5002V2.50787C1.66638 2.04775 2.03945 1.67468 2.49957 1.67468H35.8272C36.2874 1.67468 36.6604 2.04775 36.6604 2.50787V18.1554C36.6604 18.6156 37.0335 18.9886 37.4936 18.9886C37.9537 18.9886 38.3268 18.6156 38.3268 18.1554V2.50787C38.3268 1.12749 37.2076 0.00830078 35.8272 0.00830078H2.49957C1.11919 0.00830078 0 1.12749 0 2.50787V47.5002C0 48.881 1.11919 49.9998 2.49957 49.9998H35.8272C37.2076 49.9998 38.3268 48.881 38.3268 47.5002V39.1683C38.3268 38.7082 37.9537 38.3351 37.4936 38.3351Z" fill="#c3a069"/>
</g>
<defs>
<clipPath id="clip0">
<rect width="50" height="50" fill="white"/>
</clipPath>
</defs>
</svg>
