<svg  viewBox="0 0 50 50" fill="none" xmlns="http://www.w3.org/2000/svg">
<path d="M16.6667 0C9.76312 0 4.16667 5.59646 4.16667 12.5V21.6667C4.17031 24.8868 6.7799 27.4964 10 27.5H10.8333V25.8333H10C7.7 25.8306 5.83604 23.9667 5.83333 21.6667V12.5C5.83333 6.51687 10.6835 1.66667 16.6667 1.66667C22.6498 1.66667 27.5 6.51687 27.5 12.5V21.6667C27.4973 23.9667 25.6333 25.8306 23.3333 25.8333H22.5V27.5H23.3333C26.5534 27.4964 29.163 24.8868 29.1667 21.6667V12.5C29.1667 5.59646 23.5702 0 16.6667 0Z" fill="#c3a069"/>
<path d="M6.8675 39.2742L7.47667 38.315L6.06917 37.4217L5.46 38.3817C3.61761 41.285 3.75438 45.0234 5.80417 47.7842V50H7.47084V47.5C7.47094 47.3108 7.40657 47.127 7.28834 46.9792C5.51667 44.7644 5.34761 41.6688 6.8675 39.2742Z" fill="#c3a069"/>
<path d="M45.8333 0H35C32.7 0.00270833 30.836 1.86667 30.8333 4.16667V12.5C30.836 14.8 32.7 16.664 35 16.6667H36.6667V20C36.6666 20.337 36.8695 20.6409 37.1808 20.77C37.282 20.8122 37.3904 20.8336 37.5 20.8333C37.721 20.8333 37.9329 20.7454 38.0892 20.5892L42.0117 16.6667H45.8333C48.1333 16.664 49.9973 14.8 50 12.5V4.16667C49.9973 1.86667 48.1333 0.00270833 45.8333 0ZM48.3333 12.5C48.3333 13.8807 47.2141 15 45.8333 15H41.6667C41.4456 15 41.2337 15.0879 41.0775 15.2442L38.3333 17.9883V15.8333C38.3333 15.3731 37.9602 15 37.5 15H35C33.6193 15 32.5 13.8807 32.5 12.5V4.16667C32.5 2.78594 33.6193 1.66667 35 1.66667H45.8333C47.2141 1.66667 48.3333 2.78594 48.3333 4.16667V12.5Z" fill="#c3a069"/>
<path d="M40.8333 4.16669H35V5.83335H40.8333V4.16669Z" fill="#c3a069"/>
<path d="M45.8333 4.16669H42.5V5.83335H45.8333V4.16669Z" fill="#c3a069"/>
<path d="M45.8333 7.5H35V9.16667H45.8333V7.5Z" fill="#c3a069"/>
<path d="M40.8333 10.8333H35V12.5H40.8333V10.8333Z" fill="#c3a069"/>
<path d="M27.8733 38.3817L27.2642 37.4217L25.8567 38.315L26.4658 39.275C27.9858 41.6693 27.8168 44.7647 26.045 46.9792C25.9268 47.127 25.8624 47.3108 25.8625 47.5V50H27.5292V47.7842C29.579 45.0234 29.7157 41.285 27.8733 38.3817Z" fill="#c3a069"/>
<path d="M49.1667 28.3333H41.6667C38.54 28.337 35.9723 30.8051 35.845 33.9292L33.3333 38.4508V35C33.3297 31.7799 30.7201 29.1703 27.5 29.1667H24.4542L24.4317 29.1492L24.4167 29.1667H22.5C21.5795 29.1667 20.8333 28.4205 20.8333 27.5V25.5392C23.4082 24.0525 24.996 21.3066 25 18.3333V11.6667C24.9987 10.2859 24.6552 8.92709 24 7.71167C23.7901 7.325 23.3157 7.16803 22.9167 7.35334L8.81167 13.99C8.51958 14.1275 8.33323 14.4214 8.33333 14.7442V18.3333C8.33729 21.3066 9.9251 24.0525 12.5 25.5392V27.5C12.5 28.4205 11.7539 29.1667 10.8333 29.1667H5.83333C2.61323 29.1703 0.00364583 31.7799 0 35V50H1.66667V35C1.66937 32.7 3.53333 30.836 5.83333 30.8333H8.485L15.9892 41.3183C16.1433 41.5339 16.3908 41.6631 16.6558 41.6667H16.6667C16.929 41.6667 17.1759 41.5431 17.3333 41.3333L25.25 30.8333H27.5C29.8 30.836 31.664 32.7 31.6667 35V41.6667C31.6671 42.1269 32.0405 42.4997 32.5007 42.4993C32.803 42.499 33.0815 42.3351 33.2283 42.0708L37.1567 35H41.9342L33.8092 50H35.705L43.8333 35H44.1667C47.3868 34.9964 49.9964 32.3868 50 29.1667C50 28.7065 49.6269 28.3333 49.1667 28.3333ZM10 18.3333V15.2733L22.8675 9.21834C23.1753 9.99792 23.3333 10.8285 23.3333 11.6667V18.3333C23.3333 22.0152 20.3485 25 16.6667 25C12.9848 25 10 22.0152 10 18.3333ZM16.6842 39.4267L14.1125 35.8333H19.3925L16.6842 39.4267ZM20.6533 34.1667H12.9167L10.5308 30.8333H10.8333C12.6743 30.8333 14.1667 29.3409 14.1667 27.5V26.2825C15.794 26.7947 17.5394 26.7947 19.1667 26.2825V27.5C19.1667 29.3409 20.6591 30.8333 22.5 30.8333H23.1667L20.6533 34.1667ZM44.1667 33.3333H37.5833C37.9818 31.3945 39.6873 30.0022 41.6667 30H48.25C47.8516 31.9389 46.146 33.3311 44.1667 33.3333Z" fill="#c3a069"/>
</svg>
