<?xml version="1.0" encoding="iso-8859-1"?>
<!-- Uploaded to: SVG Repo, www.svgrepo.com, Generator: SVG Repo Mixer Tools -->
<svg fill="#c3a069" height="16px" width="16px" version="1.1" id="Layer_1" xmlns="http://www.w3.org/2000/svg" xmlns:xlink="http://www.w3.org/1999/xlink" 
	 viewBox="0 0 479.989 479.989" xml:space="preserve">
<g>
	<g>
		<g>
			<path d="M470.4,2.122c-4.693-3.52-11.413-2.56-14.933,2.133l-258.24,342.187L98.24,246.815c-4.267-4.16-10.987-4.053-15.04,0.213
				c-4.053,4.16-4.053,10.667,0,14.827l107.52,108.267c2.027,2.027,4.693,3.093,7.573,3.2h0.747
				c3.093-0.213,5.973-1.813,7.787-4.267l265.707-352C476.053,12.362,475.093,5.642,470.4,2.122z"/>
			<path d="M421.333,213.322c-5.867,0-10.667,4.8-10.667,10.667v234.667h-384V63.989H303.68c5.333,0,10.133-3.84,10.88-9.067
				c0.96-6.613-4.16-12.267-10.56-12.267H16c-5.867,0-10.667,4.8-10.667,10.667v416c0,5.867,4.8,10.667,10.667,10.667h405.333
				c5.867,0,10.667-4.8,10.667-10.667V223.989C432,218.122,427.2,213.322,421.333,213.322z"/>
		</g>
	</g>
</g>
</svg>